<svg xmlns="http://www.w3.org/2000/svg" xmlns:xlink="http://www.w3.org/1999/xlink" width="2120" height="1185.5"><rect width="2120" height="1185.5" rx="5" ry="5" class="a"/><svg y="0%" x="0%"><circle cx="20" cy="20" r="6" fill="#ff5f58"/><circle cx="40" cy="20" r="6" fill="#ffbd2e"/><circle cx="60" cy="20" r="6" fill="#18c132"/></svg><svg height="1085.5" viewBox="0 0 204 108.55" width="2040" x="35" xmlns="http://www.w3.org/2000/svg" xmlns:xlink="http://www.w3.org/1999/xlink" y="70"><style>@keyframes t{0%{transform:translateX(0)}5.9%{transform:translateX(-1428px)}17.6%{transform:translateX(-408px)}2.9%{transform:translateX(-1836px)}11.8%{transform:translateX(-2040px)}8.8%{transform:translateX(-2652px)}29.4%{transform:translateX(-2448px)}}.a{fill:#282d35}.f,.g,.h,.i,.j{fill:#a8cc8c;font-weight:700;white-space:pre}.g,.h,.i,.j{fill:#66c2cd}.h,.i,.j{fill:#71bef2}.i,.j{fill:#e88388}.j{fill:#dbab79}.k,.l,.m,.n,.o{fill:#b9c0cb;white-space:pre}.l,.m,.n,.o{fill:#005fd7;font-weight:700}.m,.n,.o{fill:#0087d7}.n,.o{fill:#5f87d7}.o{fill:#5fafd7}.p,.q,.r,.v{fill:#87afaf;white-space:pre}.q,.r,.v{fill:#a8cc8c}.r,.v{fill:#6f7783}.v{fill:#66c2cd}</style><g font-family="Monaco,Consolas,Menlo,'Bitstream Vera Sans Mono','Powerline Symbols',monospace" font-size="1.67"><defs><symbol id="1"><text y="1.67" class="f">➜</text><text x="3.006" y="1.67" class="g">dbmazz</text></symbol><symbol id="2"><text y="1.67" class="f">➜</text><text x="3.006" y="1.67" class="g">dbmazz</text><text x="10.02" y="1.67" class="h">git:(</text><text x="15.03" y="1.67" class="i">main</text><text x="19.038" y="1.67" class="h">)</text><text x="21.042" y="1.67" class="j">✗</text><text x="23.046" y="1.67" class="k">./ez-cdc</text></symbol><symbol id="3"><text x="4.008" y="1.67" class="l">███████╗███████╗</text><text x="25.05" y="1.67" class="l">██████╗██████╗</text><text x="40.08" y="1.67" class="l">██████╗</text></symbol><symbol id="4"><text x="4.008" y="1.67" class="m">██╔════╝╚══███╔╝</text><text x="24.048" y="1.67" class="m">██╔════╝██╔══██╗██╔════╝</text></symbol><symbol id="5"><text x="4.008" y="1.67" class="n">█████╗</text><text x="14.028" y="1.67" class="n">███╔╝</text><text x="24.048" y="1.67" class="n">██║</text><text x="32.064" y="1.67" class="n">██║</text><text x="37.074" y="1.67" class="n">██║██║</text></symbol><symbol id="6"><text x="4.008" y="1.67" class="n">██╔══╝</text><text x="13.026" y="1.67" class="n">███╔╝</text><text x="24.048" y="1.67" class="n">██║</text><text x="32.064" y="1.67" class="n">██║</text><text x="37.074" y="1.67" class="n">██║██║</text></symbol><symbol id="7"><text x="4.008" y="1.67" class="n">███████╗███████╗</text><text x="24.048" y="1.67" class="n">╚██████╗██████╔╝╚██████╗</text></symbol><symbol id="8"><text x="4.008" y="1.67" class="o">╚══════╝╚══════╝</text><text x="25.05" y="1.67" class="o">╚═════╝╚═════╝</text><text x="41.082" y="1.67" class="o">╚═════╝</text></symbol><symbol id="9"><text x="8.016" y="1.67" class="p">Real-time</text><text x="18.036" y="1.67" class="p">CDC,</text><text x="23.046" y="1.67" class="p">radically</text><text x="33.066" y="1.67" class="p">simplified</text></symbol><symbol id="10"><text x="2.004" y="1.67" class="k">1</text><text x="4.008" y="1.67" class="k">sources,</text><text x="13.026" y="1.67" class="k">2</text><text x="15.03" y="1.67" class="k">sinks</text><text x="22.044" y="1.67" class="k">·</text><text x="25.05" y="1.67" class="k">infra:</text><text x="32.064" y="1.67" class="q">running</text></symbol><symbol id="11"><text y="1.67" class="q">◇</text><text x="3.006" y="1.67" class="k">What</text><text x="8.016" y="1.67" class="k">would</text><text x="14.028" y="1.67" class="k">you</text><text x="18.036" y="1.67" class="k">like</text><text x="23.046" y="1.67" class="k">to</text><text x="26.052" y="1.67" class="k">do?</text></symbol><symbol id="12"><text y="1.67" class="r">│</text><text x="3.006" y="1.67" class="k">Exit</text></symbol><symbol id="13"><text y="1.67" class="r">│</text></symbol><symbol id="14"><text x="2.004" y="1.67" class="k">Goodbye!</text></symbol><symbol id="a"><path fill="transparent" d="M0 0h204v50H0z"/></symbol></defs><path class="a" d="M0 0h204v108.55H0z"/><g style="animation-duration:.03399999999999981s;animation-iteration-count:infinite;animation-name:t;animation-timing-function:steps(1,end)"><svg width="2856"><svg><use xlink:href="#a"/></svg><svg x="204"><use xlink:href="#a"/></svg><svg x="408"><use xlink:href="#a"/></svg><svg x="612"><use xlink:href="#a"/><use xlink:href="#1"/></svg><svg x="816"><use xlink:href="#a"/><use xlink:href="#1"/></svg><svg x="1020"><use xlink:href="#a"/><use xlink:href="#2"/></svg><svg x="1224"><use xlink:href="#a"/><use xlink:href="#2"/></svg><svg x="1428"><use xlink:href="#a"/><use xlink:href="#2"/><use xlink:href="#3" y="4.342"/><use xlink:href="#4" y="6.513"/><use xlink:href="#5" y="8.684"/><use xlink:href="#6" y="10.855"/></svg><svg x="1632"><use xlink:href="#a"/><use xlink:href="#2"/><use xlink:href="#3" y="4.342"/><use xlink:href="#4" y="6.513"/><use xlink:href="#5" y="8.684"/><use xlink:href="#6" y="10.855"/><use xlink:href="#7" y="13.026"/><use xlink:href="#8" y="15.197"/><use xlink:href="#9" y="19.539"/><use xlink:href="#10" y="23.881"/></svg><svg x="1836"><use xlink:href="#a"/><use xlink:href="#2"/><use xlink:href="#3" y="4.342"/><use xlink:href="#4" y="6.513"/><use xlink:href="#5" y="8.684"/><use xlink:href="#6" y="10.855"/><use xlink:href="#7" y="13.026"/><use xlink:href="#8" y="15.197"/><use xlink:href="#9" y="19.539"/><use xlink:href="#10" y="23.881"/><text y="29.893" class="v">◆</text><text x="3.006" y="29.893" class="k">What</text><text x="8.016" y="29.893" class="k">would</text><text x="14.028" y="29.893" class="k">you</text><text x="18.036" y="29.893" class="k">like</text><text x="23.046" y="29.893" class="k">to</text><text x="26.052" y="29.893" class="k">do?</text><text y="32.064" class="v">│</text><text x="3.006" y="32.064" class="q">●</text><text x="5.01" y="32.064" class="k">Quickstart</text><text x="16.032" y="32.064" class="k">(Open</text><text x="22.044" y="32.064" class="k">the</text><text x="26.052" y="32.064" class="k">live</text><text x="31.062" y="32.064" class="k">dashboard)</text><text y="34.235" class="v">│</text><text x="3.006" y="34.235" class="k">○</text><text x="5.01" y="34.235" class="k">Verify</text><text y="36.406" class="v">│</text><text x="3.006" y="36.406" class="k">○</text><text x="5.01" y="36.406" class="k">Clean</text><text x="11.022" y="36.406" class="k">target</text><text y="38.577" class="v">│</text><text x="3.006" y="38.577" class="k">○</text><text x="5.01" y="38.577" class="k">Logs</text><text y="40.748" class="v">│</text><text x="3.006" y="40.748" class="k">○</text><text x="5.01" y="40.748" class="k">Stop</text><text x="10.02" y="40.748" class="k">stack</text><text y="42.919" class="v">│</text><text x="3.006" y="42.919" class="k">○</text><text x="5.01" y="42.919" class="k">Datasources</text><text y="45.09" class="v">│</text><text x="3.006" y="45.09" class="k">○</text><text x="5.01" y="45.09" class="k">Exit</text><text y="47.261" class="v">└</text></svg><svg x="2040"><use xlink:href="#a"/><use xlink:href="#2"/><use xlink:href="#3" y="4.342"/><use xlink:href="#4" y="6.513"/><use xlink:href="#5" y="8.684"/><use xlink:href="#6" y="10.855"/><use xlink:href="#7" y="13.026"/><use xlink:href="#8" y="15.197"/><use xlink:href="#9" y="19.539"/><use xlink:href="#10" y="23.881"/><use xlink:href="#11" y="28.223"/><use xlink:href="#12" y="30.394"/><use xlink:href="#13" y="32.565"/><use xlink:href="#14" y="36.907"/></svg><svg x="2244"><use xlink:href="#a"/><use xlink:href="#2"/><use xlink:href="#3" y="4.342"/><use xlink:href="#4" y="6.513"/><use xlink:href="#5" y="8.684"/><use xlink:href="#6" y="10.855"/><use xlink:href="#7" y="13.026"/><use xlink:href="#8" y="15.197"/><use xlink:href="#9" y="19.539"/><use xlink:href="#10" y="23.881"/><use xlink:href="#11" y="28.223"/><use xlink:href="#12" y="30.394"/><use xlink:href="#13" y="32.565"/><use xlink:href="#14" y="36.907"/></svg><svg x="2448"><use xlink:href="#a"/><use xlink:href="#2"/><use xlink:href="#3" y="4.342"/><use xlink:href="#4" y="6.513"/><use xlink:href="#5" y="8.684"/><use xlink:href="#6" y="10.855"/><use xlink:href="#7" y="13.026"/><use xlink:href="#8" y="15.197"/><use xlink:href="#9" y="19.539"/><use xlink:href="#10" y="23.881"/><use xlink:href="#11" y="28.223"/><use xlink:href="#12" y="30.394"/><use xlink:href="#13" y="32.565"/><use xlink:href="#14" y="36.907"/></svg><svg x="2652"><use xlink:href="#a"/><use xlink:href="#2"/><use xlink:href="#3" y="4.342"/><use xlink:href="#4" y="6.513"/><use xlink:href="#5" y="8.684"/><use xlink:href="#6" y="10.855"/><use xlink:href="#7" y="13.026"/><use xlink:href="#8" y="15.197"/><use xlink:href="#9" y="19.539"/><use xlink:href="#10" y="23.881"/><use xlink:href="#11" y="28.223"/><use xlink:href="#12" y="30.394"/><use xlink:href="#13" y="32.565"/><use xlink:href="#14" y="36.907"/><text y="42.919" class="f">➜</text><text x="3.006" y="42.919" class="g">dbmazz</text><text x="10.02" y="42.919" class="h">git:(</text><text x="15.03" y="42.919" class="i">main</text><text x="19.038" y="42.919" class="h">)</text><text x="21.042" y="42.919" class="j">✗</text></svg></svg></g></g></svg></svg>